# xmcd CD database file
#
# Track frame offsets:
#	150
#	22302
#	36746
#	52368
#	69860
#	87104
#	98887
#	113335
#	144203
#	161063
#	176128
#	188599
#	205469
#	230501
#	250431
#	266816
#	286435
#	300152
#	319143
#	335277
#
# Disc length: 4713 seconds
#
# Revision: 0
# Processed by: cddbd v1.5.1PL0 Copyright (c) Steve Scherf et al.
# Submitted via: Feurio! 1.67 - http://www.feurio.com
#
DISCID=27126714
DTITLE=YoYo Band - Trocha z nejlepsiho a jeste neco
DYEAR=2004
DGENRE=Country
TTITLE0=Kladno
TTITLE1=To me laka
TTITLE2=Souboj na kuchynsky noze
TTITLE3=Velbloud ten se ma
TTITLE4=Jo ja jsem srab
TTITLE5=Do backor ne
TTITLE6=Husa v troube
TTITLE7=Karvina
TTITLE8=Kamosi ty se maj
TTITLE9=Jsi pekna kost
TTITLE10=Gejza
TTITLE11=Parno
TTITLE12=Lehkou chuzi
TTITLE13=My jezdime po vinarnach
TTITLE14=Rybitvi
TTITLE15=O Daisy
TTITLE16=To teda ne
TTITLE17=Jedem do afriky
TTITLE18=Havana
TTITLE19=Mam malej stan
EXTD=
EXTT0=
EXTT1=
EXTT2=
EXTT3=
EXTT4=
EXTT5=
EXTT6=
EXTT7=
EXTT8=
EXTT9=
EXTT10=
EXTT11=
EXTT12=
EXTT13=
EXTT14=
EXTT15=
EXTT16=
EXTT17=
EXTT18=
EXTT19=
PLAYORDER=
